<?xml version="1.0" encoding="utf-8"?>
<!-- Generator: Adobe Illustrator 26.2.1, SVG Export Plug-In . SVG Version: 6.00 Build 0)  -->
<svg version="1.1" id="Layer_1" xmlns="http://www.w3.org/2000/svg" xmlns:xlink="http://www.w3.org/1999/xlink" x="0px" y="0px"
	 viewBox="0 0 25.2 4" style="enable-background:new 0 0 25.2 4;" xml:space="preserve">
<path d="M0.5,2L0.5,2L0.5,2z M1,2c0,0.3-0.2,0.5-0.5,0.5S0,2.3,0,2s0.2-0.5,0.5-0.5S1,1.7,1,2z M23.5,2.6c0,0.3-0.2,0.5-0.5,0.5
	c-0.3,0-0.5-0.2-0.5-0.5s0.2-0.5,0.5-0.5C23.3,2.1,23.5,2.4,23.5,2.6z M20.7,3c0,0.3-0.2,0.5-0.5,0.5c-0.3,0-0.5-0.2-0.5-0.5
	s0.2-0.5,0.5-0.5C20.5,2.5,20.7,2.7,20.7,3z M17.9,2.9c0,0.3-0.2,0.5-0.5,0.5c-0.3,0-0.5-0.2-0.5-0.5s0.2-0.5,0.5-0.5
	C17.6,2.4,17.9,2.6,17.9,2.9z M15.1,2.5c0,0.3-0.2,0.5-0.5,0.5c-0.3,0-0.5-0.2-0.5-0.5S14.3,2,14.6,2C14.8,2,15.1,2.2,15.1,2.5z
	 M12.3,1.7c0,0.3-0.2,0.5-0.5,0.5c-0.3,0-0.5-0.2-0.5-0.5s0.2-0.5,0.5-0.5C12.1,1.2,12.3,1.4,12.3,1.7z M9.5,1.1
	c0,0.3-0.2,0.5-0.5,0.5S8.5,1.4,8.5,1.1S8.7,0.6,9,0.6S9.5,0.9,9.5,1.1z M6.6,1c0,0.3-0.2,0.5-0.5,0.5S5.6,1.3,5.6,1
	s0.2-0.5,0.5-0.5S6.6,0.7,6.6,1z M3.8,1.3c0,0.3-0.2,0.5-0.5,0.5S2.8,1.6,2.8,1.3S3,0.8,3.3,0.8S3.8,1,3.8,1.3z"/>
</svg>
